<svg id="SvgjsSvg1046" width="288" height="288" xmlns="http://www.w3.org/2000/svg" version="1.1" xmlns:xlink="http://www.w3.org/1999/xlink" xmlns:svgjs="http://svgjs.com/svgjs"><defs id="SvgjsDefs1047"></defs><g id="SvgjsG1048" transform="matrix(1,0,0,1,0,0)"><svg xmlns="http://www.w3.org/2000/svg" viewBox="0 0 64 64" width="288" height="288"><g data-name="line" fill="#ff0000" class="color000 svgShape"><path d="M40.414 33.122a1 1 0 1 0-.828-1.82l-2.947 1.34a1 1 0 0 0-.583.979 24.135 24.135 0 0 0 .312 2.554 1 1 0 0 0 .984.825.983.983 0 0 0 .175-.016 1 1 0 0 0 .81-1.159c-.096-.546-.173-1.1-.229-1.654Z" fill="#ff0000" class="color000 svgShape"></path><path d="M61.667 24.255a1.001 1.001 0 0 0-1.412.078l-5.061 5.657L52 28.538V10a1 1 0 0 0-1-1H3a1 1 0 0 0-1 1v32a1 1 0 0 0 1 1h31.258a28.159 28.159 0 0 0 6.96 9.823l2.11 1.917a1.001 1.001 0 0 0 1.345 0l2.108-1.917a28.216 28.216 0 0 0 9.216-20.732l5.748-6.424a1 1 0 0 0-.078-1.412ZM4 17h46v2H4Zm46-6v4H4v-4ZM4 41V21h46v6.63l-5.586-2.54a1.002 1.002 0 0 0-.828 0l-11 5A.999.999 0 0 0 32 31v.983A28.12 28.12 0 0 0 33.495 41Zm41.435 10.343L44 52.648l-1.435-1.305A26.212 26.212 0 0 1 34 31.983v-.34l10-4.545 9.797 4.453-9.837 10.995-3.253-3.253a1 1 0 0 0-1.414 1.414l4 4A1.001 1.001 0 0 0 44 45h.028a1 1 0 0 0 .717-.333l9.131-10.205a26.215 26.215 0 0 1-8.44 16.88Z" fill="#ff0000" class="color000 svgShape"></path><path d="M26 31H7a1 1 0 0 0 0 2h19a1 1 0 0 0 0-2zM9 35H7a1 1 0 0 0 0 2h2a1 1 0 0 0 0-2zm6 0h-2a1 1 0 0 0 0 2h2a1 1 0 0 0 0-2zm11 0h-7a1 1 0 0 0 0 2h7a1 1 0 0 0 0-2z" fill="#ff0000" class="color000 svgShape"></path></g></svg></g></svg>